<?xml version="1.0" standalone="no"?><!DOCTYPE svg PUBLIC "-//W3C//DTD SVG 1.1//EN" "http://www.w3.org/Graphics/SVG/1.1/DTD/svg11.dtd"><svg t="1542883518757" class="icon" style="" viewBox="0 0 1134 1024" version="1.1" xmlns="http://www.w3.org/2000/svg" p-id="1264" xmlns:xlink="http://www.w3.org/1999/xlink" width="53.15625" height="48"><defs><style type="text/css"></style></defs><path d="M734.912 490.744L503.024 321.565c-4.226-3.21-9.575-5.141-15.375-5.141a25.431 25.431 0 0 0-14.141 4.266c-9.043 6.406-14.936 16.93-14.936 28.833 0 0.252 0.003 0.504 0.008 0.756l-0.001 338.32c0 12.28 5.797 23.562 15.023 29.609 3.956 2.637 8.818 4.207 14.048 4.207 5.8 0 11.149-1.932 15.438-5.188l231.887-169.132c8.478-6.171 13.589-16.955 13.589-28.674s-5.111-22.441-13.651-28.674z" fill="#50C2FF" p-id="1265"></path><path d="M971.911 499.034l-60.59-16.269-83.28-28.051c-16.734-5.212-28.672-20.563-28.672-38.702 0-22.342 18.113-40.456 40.456-40.456 3.249 0 6.408 0.383 9.436 1.106l41.552 16.899C848.85 280.918 753.42 197.139 636.22 172.303c-9.709-3.302-40.915-7.653-73.139-7.653-161.228 0-297.018 108.914-337.807 257.182-4.539 21.01-20.791 34.72-40.245 34.72-22.378 0-40.519-18.141-40.519-40.519 0-4.514 0.738-8.856 2.101-12.91C197.426 217.912 364.536 83.871 562.952 83.871c39.72 0 78.186 5.372 114.71 15.428 140.644 38.637 252.445 146.978 295.933 285.558l5.237-58.682c9.226-27.489 28.987-34.347 50.554-28.55 17.407 4.751 29.991 20.422 29.991 39.031 0 3.721-0.503 7.325-1.445 10.748l-36.525 123.016c-4.808 17.399-20.497 29.962-39.119 29.962-3.689 0-7.264-0.493-10.659-1.417z m-817.716 32.041l136.39 40.019c17.318 4.811 29.816 20.438 29.816 38.984a40.44 40.44 0 0 1-1.458 10.793c-5.668 21.284-21.439 33.003-42.944 27.268l-41.266-11.782c50.673 134.83 178.534 229.03 328.396 229.03 64.469 0 124.868-17.433 176.737-47.842 86.493-50.675 149.306-137.391 167.826-239.531-0.563 11.737 14.414 0.545 32.005 0.545 22.412 0 40.58 18.169 40.58 40.58 0 2.65-0.254 5.24-0.739 7.748-50.902 185.289-218.068 319.357-416.546 319.357-39.66 0-78.069-5.353-114.547-15.377-140.698-38.686-252.48-147.237-295.695-286.016l-11.77 56.957c-5.504 16.32-20.672 27.864-38.537 27.864-3.719 0-7.322-0.5-10.744-1.438-20.473-5.544-33.251-21.003-28.888-42.072L104.7 559.621c4.8-17.374 20.465-29.918 39.059-29.918 3.711 0 7.305 0.5 10.719 1.435z" fill="#50C2FF" p-id="1266"></path></svg>